<?xml version="1.0" encoding="UTF-8" standalone="no" ?>
<!DOCTYPE svg PUBLIC "-//W3C//DTD SVG 1.1//EN" "http://www.w3.org/Graphics/SVG/1.1/DTD/svg11.dtd">
<svg xmlns="http://www.w3.org/2000/svg" xmlns:xlink="http://www.w3.org/1999/xlink" fill="#ffffff" version="1.1" width="1080" height="1080" viewBox="0 0 1080 1080" xml:space="preserve">
<desc>Created with Fabric.js 5.2.4</desc>
<defs>
</defs>
<g transform="matrix(1 0 0 1 540 540)" id="4fddafa7-b24f-4e7f-858d-54a7be09e067"  >
</g>
<g transform="matrix(1 0 0 1 540 540)" id="fa40248d-96e2-492e-83e3-c933d5753316"  >
<rect style="stroke: none; stroke-width: 1; stroke-dasharray: none; stroke-linecap: butt; stroke-dashoffset: 0; stroke-linejoin: miter; stroke-miterlimit: 4; fill: rgb(255,255,255); fill-rule: nonzero; opacity: 1; visibility: hidden;" vector-effect="non-scaling-stroke"  x="-540" y="-540" rx="0" ry="0" width="1080" height="1080" />
</g>
<g transform="matrix(5.69 0 0 5.69 477.14 596.44)"  >
<polygon style="stroke: none; stroke-width: 1; stroke-dasharray: none; stroke-linecap: butt; stroke-dashoffset: 0; stroke-linejoin: miter; stroke-miterlimit: 4; fill: #ffffff; fill-rule: nonzero; opacity: 1;" vector-effect="non-scaling-stroke"  points="6,-1.46 -6,-13.03 -6,1.46 6,13.03 " />
</g>
<g transform="matrix(5.69 0 0 5.69 556.76 638.76)"  >
<polygon style="stroke: none; stroke-width: 1; stroke-dasharray: none; stroke-linecap: butt; stroke-dashoffset: 0; stroke-linejoin: miter; stroke-miterlimit: 4; fill: #ffffff; fill-rule: nonzero; opacity: 1;" vector-effect="non-scaling-stroke"  points="6,-15.93 -6,0.72 -6,15.93 6,-0.72 " />
</g>
<g transform="matrix(5.69 0 0 5.69 477.14 504.61)"  >
<polygon style="stroke: none; stroke-width: 1; stroke-dasharray: none; stroke-linecap: butt; stroke-dashoffset: 0; stroke-linejoin: miter; stroke-miterlimit: 4; fill: #ffffff; fill-rule: nonzero; opacity: 1;" vector-effect="non-scaling-stroke"  points="-6,0.34 6,11.9 6,-0.34 -6,-11.9 " />
</g>
<g transform="matrix(5.69 0 0 5.69 629.3 610.74)"  >
<polygon style="stroke: none; stroke-width: 1; stroke-dasharray: none; stroke-linecap: butt; stroke-dashoffset: 0; stroke-linejoin: miter; stroke-miterlimit: 4; fill: #ffffff; fill-rule: nonzero; opacity: 1;" vector-effect="non-scaling-stroke"  points="4.75,23.9 4.75,-23.9 -4.75,-15.25 -4.75,23.9 " />
</g>
<g transform="matrix(5.69 0 0 5.69 556.76 421.87)"  >
<polygon style="stroke: none; stroke-width: 1; stroke-dasharray: none; stroke-linecap: butt; stroke-dashoffset: 0; stroke-linejoin: miter; stroke-miterlimit: 4; fill: #ffffff; fill-rule: nonzero; opacity: 1;" vector-effect="non-scaling-stroke"  points="6,-0.6 6,-16.04 -6,0.61 -6,5.8 -6,16.04 " />
</g>
<g transform="matrix(5.69 0 0 5.69 557.54 700.43)"  >
<polygon style="stroke: none; stroke-width: 1; stroke-dasharray: none; stroke-linecap: butt; stroke-dashoffset: 0; stroke-linejoin: miter; stroke-miterlimit: 4; fill: #ffffff; fill-rule: nonzero; opacity: 1;" vector-effect="non-scaling-stroke"  points="-5.86,8.13 5.86,8.13 5.86,-8.13 " />
</g>
<g transform="matrix(5.69 0 0 5.69 556.76 530.64)"  >
<polygon style="stroke: none; stroke-width: 1; stroke-dasharray: none; stroke-linecap: butt; stroke-dashoffset: 0; stroke-linejoin: miter; stroke-miterlimit: 4; fill: #ffffff; fill-rule: nonzero; opacity: 1;" vector-effect="non-scaling-stroke"  points="-6,0.35 -6,16.3 6,-0.35 6,-1.61 6,-16.3 " />
</g>
<g transform="matrix(3.11 0 0 4.53 548.89 761.32)"  >
<polygon style="stroke: none; stroke-width: 1; stroke-dasharray: none; stroke-linecap: butt; stroke-dashoffset: 0; stroke-linejoin: miter; stroke-miterlimit: 4; fill: #ffffff; fill-rule: nonzero; opacity: 1;" vector-effect="non-scaling-stroke"  points="7,-0.91 -7,-0.91 -20.99,-0.91 -34.24,-0.91 -34.24,0.91 34.24,0.91 34.24,-0.91 18.5,-0.91 " />
</g>
<g transform="matrix(5.69 0 0 5.69 477.14 683.62)"  >
<polygon style="stroke: none; stroke-width: 1; stroke-dasharray: none; stroke-linecap: butt; stroke-dashoffset: 0; stroke-linejoin: miter; stroke-miterlimit: 4; fill: #ffffff; fill-rule: nonzero; opacity: 1;" vector-effect="non-scaling-stroke"  points="6,0.48 -6,-11.09 -6,11.09 6,11.09 " />
</g>
<g transform="matrix(5.69 0 0 5.69 477.14 439.16)"  >
<polygon style="stroke: none; stroke-width: 1; stroke-dasharray: none; stroke-linecap: butt; stroke-dashoffset: 0; stroke-linejoin: miter; stroke-miterlimit: 4; fill: #ffffff; fill-rule: nonzero; opacity: 1;" vector-effect="non-scaling-stroke"  points="6,8.39 6,3.18 -6,-8.39 -6,-3.18 " />
</g>
<g transform="matrix(5.69 0 0 5.69 556.76 318.58)"  >
<polygon style="stroke: none; stroke-width: 1; stroke-dasharray: none; stroke-linecap: butt; stroke-dashoffset: 0; stroke-linejoin: miter; stroke-miterlimit: 4; fill: #ffffff; fill-rule: nonzero; opacity: 1;" vector-effect="non-scaling-stroke"  points="6,-1.31 6,-15.34 -6,1.31 -6,15.34 " />
</g>
</svg>
