<?xml version="1.0" encoding="utf-8"?><svg version="1.1" id="Layer_1" fill="#e6cd89" xmlns="http://www.w3.org/2000/svg" xmlns:xlink="http://www.w3.org/1999/xlink" x="0px" y="0px" viewBox="0 0 122.88 116.17" style="enable-background:new 0 0 122.88 116.17" xml:space="preserve"><g><path d="M66.41,99.94h21.91c1.76-1.75,3.69-3.57,5.65-5.42c4.11-3.89,8.4-7.95,12.81-13.03c5.04-5.81,5.58-7.82,7.11-13.51 c0.29-1.07,0.61-2.27,1.03-3.76l2.62-9.21l0.03-0.1c1.4-4.1,1.51-6.81,0.93-8.37c-0.18-0.48-0.41-0.8-0.68-0.97 c-0.21-0.14-0.49-0.19-0.78-0.16c-0.68,0.07-1.45,0.5-2.15,1.27L107.1,65.2c-0.07,0.17-0.17,0.33-0.28,0.47 c-0.46,0.83-1.08,1.64-1.88,2.41l-13.8,15.39c-0.75,0.84-2.04,0.91-2.87,0.16c-0.84-0.75-0.91-2.04-0.16-2.87l13.81-15.39 c0.06-0.07,0.12-0.14,0.19-0.2c1.43-1.36,1.88-2.83,1.63-3.9c-0.08-0.33-0.22-0.61-0.42-0.8c-0.19-0.17-0.44-0.29-0.75-0.32v0 c-1.23-0.13-3.04,0.78-5.25,3.39l0,0c-0.06,0.07-0.13,0.14-0.2,0.21l-5.35,4.72l-0.03,0.03c-5.79,5.48-8.28,6.78-12.82,9.15 c-0.95,0.5-1.99,1.04-3.28,1.74c-0.51,0.28-1.01,0.62-1.5,0.99c-0.52,0.4-1.02,0.81-1.49,1.21c-2.4,2.02-3.66,3.66-4.38,5.47 c-0.75,1.88-1.02,4.17-1.39,7.31c-0.15,1.27-0.26,2.52-0.35,3.77C66.47,98.76,66.44,99.36,66.41,99.94L66.41,99.94z M86.78,55.37 v2.3c0,0.59-0.48,1.07-1.08,1.07H36.89c-0.59,0-1.07-0.48-1.07-1.07V30.24c-1.2,0.46-2.32,0.47-3.26,0.16 c-0.73-0.25-1.34-0.69-1.8-1.26c-0.45-0.57-0.74-1.27-0.83-2.03c-0.13-1.18,0.22-2.53,1.23-3.78l0,0c0.05-0.06,0.11-0.12,0.18-0.17 L60.62,0.28C61-0.07,61.59-0.1,62.01,0.23l29.36,22.82l0,0c0.04,0.04,0.09,0.07,0.13,0.12c1.36,1.46,1.7,3.09,1.37,4.46 c-0.16,0.68-0.49,1.29-0.93,1.79c-0.45,0.5-1.02,0.89-1.66,1.13c-1.03,0.37-2.25,0.36-3.49-0.23V55.37L86.78,55.37L86.78,55.37z M32.76,24.76c-0.57,0.74-0.77,1.49-0.7,2.12c0.04,0.36,0.17,0.68,0.37,0.93c0.2,0.25,0.47,0.44,0.8,0.55 c0.56,0.19,1.28,0.14,2.11-0.25L60.9,8.67c0.4-0.3,0.93-0.29,1.31,0.01l0,0l24.83,19.3c0.01,0.01,0.02,0.02,0.03,0.03 c0.91,0.66,1.78,0.76,2.46,0.52c0.31-0.11,0.59-0.3,0.8-0.54c0.21-0.24,0.37-0.53,0.45-0.85c0.17-0.71-0.03-1.58-0.8-2.43 L61.35,2.43L32.76,24.76L32.76,24.76L32.76,24.76z M45.1,38.75h13.7c0.54,0,0.97,0.42,0.97,0.95v10.72c0,0.52-0.43,0.95-0.97,0.95 H45.1c-0.53,0-0.97-0.43-0.97-0.95V39.7C44.13,39.17,44.56,38.75,45.1,38.75L45.1,38.75L45.1,38.75z M64.67,37.8h12.87 c0.58,0,1.04,0.48,1.04,1.08V56.6h6.05V29.04c0-0.07,0.01-0.14,0.02-0.21l-23.1-17.96L37.93,28.84c0.02,0.09,0.04,0.18,0.04,0.28 V56.6h25.66V38.88C63.63,38.29,64.09,37.8,64.67,37.8L64.67,37.8L64.67,37.8z M76.49,39.96H65.71v16.62h10.78V39.96L76.49,39.96z M57.83,46.01h-5.09v3.46h5.09V46.01L57.83,46.01z M50.85,46.01h-4.78v3.46h4.78V46.01L50.85,46.01z M46.07,44.11h4.78v-3.46h-4.78 V44.11L46.07,44.11L46.07,44.11z M52.74,44.11h5.09v-3.46h-5.09V44.11L52.74,44.11L52.74,44.11z M61.15,18.65 c1.82,0,3.3,1.48,3.3,3.3s-1.48,3.3-3.3,3.3c-1.82,0-3.3-1.48-3.3-3.3S59.33,18.65,61.15,18.65L61.15,18.65z M56.47,99.94H34.55 c-1.76-1.75-3.69-3.57-5.65-5.42c-4.11-3.89-8.4-7.95-12.81-13.03c-5.04-5.81-5.58-7.82-7.11-13.51c-0.29-1.07-0.61-2.27-1.03-3.76 l-2.62-9.21l-0.03-0.1c-1.4-4.1-1.51-6.81-0.93-8.37c0.18-0.48,0.41-0.8,0.68-0.97c0.21-0.14,0.49-0.19,0.78-0.16 c0.68,0.07,1.45,0.5,2.15,1.27l7.78,18.53c0.07,0.17,0.17,0.33,0.28,0.47c0.46,0.83,1.08,1.64,1.88,2.41l13.8,15.39 c0.75,0.84,2.04,0.91,2.87,0.16c0.84-0.75,0.91-2.04,0.16-2.87L20.96,65.37c-0.06-0.07-0.12-0.14-0.19-0.2 c-1.43-1.36-1.88-2.83-1.63-3.9c0.08-0.33,0.22-0.61,0.42-0.8c0.19-0.17,0.44-0.29,0.75-0.32v0c1.23-0.13,3.05,0.78,5.25,3.39l0,0 c0.06,0.07,0.13,0.14,0.2,0.21l5.35,4.72l0.03,0.03c5.79,5.48,8.28,6.78,12.82,9.15c0.95,0.5,1.99,1.04,3.28,1.74 c0.51,0.28,1.01,0.62,1.5,0.99c0.52,0.4,1.02,0.81,1.49,1.21c2.4,2.02,3.66,3.66,4.38,5.47c0.75,1.88,1.02,4.17,1.39,7.31 c0.15,1.27,0.26,2.52,0.35,3.77C56.41,98.76,56.44,99.36,56.47,99.94L56.47,99.94z M29.45,100.64c-0.31,0.36-0.5,0.83-0.5,1.34 v12.14c0,1.13,0.92,2.04,2.04,2.04h27.58c1.13,0,2.04-0.91,2.04-2.04v-12.26c0-1.3-0.08-2.7-0.17-4c-0.09-1.33-0.21-2.65-0.36-3.96 c-0.4-3.43-0.7-5.94-1.66-8.35c-0.99-2.47-2.58-4.6-5.53-7.09c-0.54-0.46-1.09-0.92-1.67-1.35c-0.61-0.46-1.27-0.9-2.01-1.31 c-1.2-0.65-2.32-1.24-3.34-1.78c-4.2-2.2-6.5-3.4-11.91-8.52c-0.04-0.04-0.09-0.08-0.13-0.11L28.6,60.8 c-3.19-3.73-6.31-4.97-8.7-4.71l-0.01,0v0c-1.17,0.12-2.17,0.58-2.97,1.28l-5.27-12.56l-0.01,0c-0.08-0.18-0.18-0.35-0.31-0.51 c-1.46-1.75-3.31-2.77-5.08-2.95c-1.21-0.12-2.38,0.14-3.4,0.8c-0.97,0.63-1.77,1.61-2.27,2.96c-0.88,2.35-0.86,6,0.86,11.05 l2.6,9.15c0.38,1.32,0.71,2.59,1.02,3.71c1.7,6.35,2.3,8.6,7.97,15.12c4.49,5.17,8.88,9.33,13.1,13.32 C27.23,98.53,28.33,99.57,29.45,100.64L29.45,100.64z M33.35,104.03c0.27,0.06,0.55,0.06,0.83,0h22.34v8.06H33.03v-8.06H33.35 L33.35,104.03z M93.43,100.64c0.31,0.36,0.5,0.83,0.5,1.34v12.14c0,1.13-0.91,2.04-2.04,2.04H64.32c-1.13,0-2.04-0.91-2.04-2.04 v-12.26c0-0.07,0-0.15,0.01-0.22c0.03-1.31,0.08-2.58,0.16-3.78c0.09-1.33,0.21-2.65,0.36-3.96c0.4-3.43,0.7-5.94,1.66-8.35 c0.99-2.47,2.58-4.6,5.53-7.09c0.54-0.46,1.09-0.92,1.67-1.35c0.61-0.46,1.27-0.9,2.01-1.31c1.2-0.65,2.32-1.24,3.34-1.78 c4.2-2.2,6.5-3.4,11.91-8.52c0.04-0.04,0.09-0.08,0.13-0.11l5.22-4.61c3.19-3.73,6.31-4.97,8.7-4.71l0.01,0v0 c1.17,0.12,2.17,0.58,2.97,1.28l5.27-12.56l0.01,0c0.08-0.18,0.18-0.35,0.31-0.51c1.46-1.75,3.31-2.77,5.08-2.95 c1.21-0.12,2.38,0.14,3.4,0.8c0.97,0.63,1.77,1.61,2.27,2.96c0.88,2.35,0.86,6-0.86,11.05l-2.6,9.15 c-0.38,1.32-0.71,2.59-1.02,3.71c-1.7,6.35-2.3,8.6-7.97,15.12c-4.49,5.17-8.88,9.33-13.1,13.32 C95.65,98.53,94.55,99.57,93.43,100.64L93.43,100.64z M89.53,104.03c-0.27,0.06-0.55,0.06-0.83,0H66.36v8.06h23.49v-8.06H89.53 L89.53,104.03z"/></g></svg>