<svg width="26" height="25" viewBox="0 0 26 25" fill="none" xmlns="http://www.w3.org/2000/svg">
<circle cx="12.7539" cy="12.5" r="12.5" fill="#283760"/>
<path fill-rule="evenodd" clip-rule="evenodd" d="M12.7542 4.16699C10.491 4.16699 10.2072 4.17659 9.31841 4.21714C8.43142 4.2576 7.82564 4.39848 7.29558 4.6045C6.74759 4.81743 6.28286 5.10237 5.81955 5.56565C5.35628 6.02896 5.07134 6.49369 4.8584 7.04168C4.65239 7.57174 4.5115 8.17752 4.47105 9.0645C4.43049 9.95334 4.4209 10.2371 4.4209 12.5003C4.4209 14.7635 4.43049 15.0473 4.47105 15.9361C4.5115 16.8231 4.65239 17.4289 4.8584 17.959C5.07134 18.507 5.35628 18.9717 5.81955 19.435C6.28286 19.8983 6.74759 20.1832 7.29558 20.3962C7.82564 20.6022 8.43142 20.7431 9.31841 20.7835C10.2072 20.8241 10.491 20.8337 12.7542 20.8337C15.0174 20.8337 15.3012 20.8241 16.1901 20.7835C17.077 20.7431 17.6828 20.6022 18.2129 20.3962C18.7609 20.1832 19.2256 19.8983 19.6889 19.435C20.1522 18.9717 20.4371 18.507 20.6501 17.959C20.8561 17.4289 20.997 16.8231 21.0374 15.9361C21.078 15.0473 21.0876 14.7635 21.0876 12.5003C21.0876 10.2371 21.078 9.95334 21.0374 9.0645C20.997 8.17752 20.8561 7.57174 20.6501 7.04168C20.4371 6.49369 20.1522 6.02896 19.6889 5.56565C19.2256 5.10237 18.7609 4.81743 18.2129 4.6045C17.6828 4.39848 17.077 4.2576 16.1901 4.21714C15.3012 4.17659 15.0174 4.16699 12.7542 4.16699ZM12.7542 5.66849C14.9793 5.66849 15.2429 5.67699 16.1216 5.71708C16.9341 5.75413 17.3753 5.88989 17.669 6.00401C18.058 6.15519 18.3356 6.33577 18.6272 6.62739C18.9188 6.91899 19.0994 7.19659 19.2505 7.58556C19.3647 7.87921 19.5004 8.32045 19.5375 9.13294C19.5776 10.0117 19.5861 10.2752 19.5861 12.5003C19.5861 14.7254 19.5776 14.989 19.5375 15.8677C19.5004 16.6802 19.3647 17.1214 19.2505 17.4151C19.0994 17.8041 18.9188 18.0817 18.6272 18.3733C18.3356 18.6649 18.058 18.8455 17.669 18.9966C17.3753 19.1108 16.9341 19.2465 16.1216 19.2836C15.243 19.3237 14.9795 19.3322 12.7542 19.3322C10.529 19.3322 10.2655 19.3237 9.38685 19.2836C8.57436 19.2465 8.13311 19.1108 7.83947 18.9966C7.45049 18.8455 7.17289 18.6649 6.8813 18.3733C6.5897 18.0817 6.40909 17.8041 6.25792 17.4151C6.1438 17.1214 6.00804 16.6802 5.97099 15.8677C5.9309 14.989 5.9224 14.7254 5.9224 12.5003C5.9224 10.2752 5.9309 10.0117 5.97099 9.13294C6.00804 8.32045 6.1438 7.87921 6.25792 7.58556C6.40909 7.19659 6.58967 6.91899 6.8813 6.62739C7.17289 6.33577 7.45049 6.15519 7.83947 6.00401C8.13311 5.88989 8.57436 5.75413 9.38685 5.71708C10.2656 5.67699 10.5291 5.66849 12.7542 5.66849Z" fill="white"/>
<path fill-rule="evenodd" clip-rule="evenodd" d="M12.7539 15.2778C11.2198 15.2778 9.97611 14.0341 9.97611 12.5C9.97611 10.9658 11.2198 9.7222 12.7539 9.7222C14.288 9.7222 15.5317 10.9658 15.5317 12.5C15.5317 14.0341 14.288 15.2778 12.7539 15.2778ZM12.7539 8.2207C10.3905 8.2207 8.47461 10.1366 8.47461 12.5C8.47461 14.8634 10.3905 16.7793 12.7539 16.7793C15.1173 16.7793 17.0332 14.8634 17.0332 12.5C17.0332 10.1366 15.1173 8.2207 12.7539 8.2207Z" fill="white"/>
<path fill-rule="evenodd" clip-rule="evenodd" d="M18.2022 8.05178C18.2022 8.60407 17.7544 9.05176 17.2021 9.05176C16.6499 9.05176 16.2021 8.60407 16.2021 8.05178C16.2021 7.49949 16.6499 7.05176 17.2021 7.05176C17.7544 7.05176 18.2022 7.49949 18.2022 8.05178Z" fill="white"/>
</svg>
