<svg xmlns="http://www.w3.org/2000/svg" xmlns:xlink="http://www.w3.org/1999/xlink" fill="#fff" width="500" zoomAndPan="magnify" viewBox="0 0 375 374.999991" height="500" preserveAspectRatio="xMidYMid meet" version="1.0"><defs><filter x="0%" y="0%" width="100%" height="100%" id="8b4bdf6fe5"><feColorMatrix values="0 0 0 0 1 0 0 0 0 1 0 0 0 0 1 0 0 0 1 0" color-interpolation-filters="sRGB"/></filter><mask id="7407939d6a"><g filter="url(#8b4bdf6fe5)"><rect x="-37.5" width="450" fill="#000000" y="-37.499999" height="449.999989" fill-opacity="0.81"/></g></mask><clipPath id="d687166c69"><rect x="0" width="151" y="0" height="372"/></clipPath></defs><g mask="url(#7407939d6a)"><g transform="matrix(1, 0, 0, 1, 118, 0)"><g clip-path="url(#d687166c69)"><path fill="#e5b80b" d="M 49.71875 248.695312 L 2.683594 203.351562 L 2.683594 260.140625 L 49.71875 305.488281 Z M 49.71875 248.695312 " fill-opacity="1" fill-rule="nonzero"/><path fill="#e5b80b" d="M 104.558594 221.136719 L 57.527344 286.390625 L 57.527344 346.003906 L 104.558594 280.75 Z M 104.558594 221.136719 " fill-opacity="1" fill-rule="nonzero"/><path fill="#e5b80b" d="M 2.683594 192.5 L 49.71875 237.804688 L 49.71875 189.832031 L 2.683594 144.527344 Z M 2.683594 192.5 " fill-opacity="1" fill-rule="nonzero"/><path fill="#e5b80b" d="M 149.628906 357.941406 L 149.628906 170.597656 L 112.394531 204.5 L 112.394531 357.941406 Z M 149.628906 357.941406 " fill-opacity="1" fill-rule="nonzero"/><path fill="#e5b80b" d="M 104.558594 131.820312 L 104.558594 71.308594 L 57.527344 136.5625 L 57.527344 197.039062 Z M 104.558594 131.820312 " fill-opacity="1" fill-rule="nonzero"/><path fill="#e5b80b" d="M 58.613281 357.914062 L 104.550781 357.914062 L 104.550781 294.183594 Z M 58.613281 357.914062 " fill-opacity="1" fill-rule="nonzero"/><path fill="#e5b80b" d="M 57.527344 210.46875 L 57.527344 272.980469 L 104.558594 207.722656 L 104.558594 145.210938 Z M 57.527344 210.46875 " fill-opacity="1" fill-rule="nonzero"/><path fill="#e5b80b" d="M 90.617188 365.152344 L 2.273438 365.152344 L 2.273438 370.832031 L 148.972656 370.832031 L 148.972656 365.152344 Z M 90.617188 365.152344 " fill-opacity="1" fill-rule="nonzero"/><path fill="#e5b80b" d="M 49.71875 316.351562 L 2.683594 271.003906 L 2.683594 357.9375 L 49.71875 357.9375 Z M 49.71875 316.351562 " fill-opacity="1" fill-rule="nonzero"/><path fill="#e5b80b" d="M 49.71875 178.964844 L 49.71875 158.546875 L 2.683594 113.199219 L 2.683594 133.621094 Z M 49.71875 178.964844 " fill-opacity="1" fill-rule="nonzero"/><path fill="#e5b80b" d="M 104.558594 57.890625 L 104.558594 2.902344 L 57.527344 68.160156 L 57.527344 123.148438 Z M 104.558594 57.890625 " fill-opacity="1" fill-rule="nonzero"/></g></g></g></svg>